<?xml version="1.0" encoding="UTF-8"?>
<svg data-bbox="0 1.3 26.003 23.4" xmlns="http://www.w3.org/2000/svg" viewBox="0 0 26 26" height="26" width="26" data-type="color">
    <g>
        <path fill="#ffffff" d="M25.174 14.766c.694-.43.826-1.086.826-1.522 0-1.138-.927-2.41-2.167-2.41H17.77c-.217-.003-1.302-.077-1.302-1.3a.433.433 0 1 0-.867 0c0 1.713 1.417 2.166 2.167 2.166h6.066c.72 0 1.3.845 1.3 1.544 0 .225 0 .911-1.347 1.059a.433.433 0 0 0 .047.864 1.301 1.301 0 0 1 0 2.6h-.866a.433.433 0 1 0 0 .866c.716 0 1.3.584 1.3 1.3s-.584 1.3-1.3 1.3h-1.3a.433.433 0 1 0 0 .867c.453 0 .866.413.866.867 0 .437-.429.866-.866.866h-6.5c-1.81 0-2.46-.359-3.214-.774-.638-.352-1.36-.75-2.792-.955a.433.433 0 1 0-.123.858c1.275.182 1.896.525 2.496.856.787.433 1.6.882 3.632.882h6.5c.908 0 1.734-.826 1.734-1.733a1.7 1.7 0 0 0-.245-.875 2.17 2.17 0 0 0 1.978-2.159 2.16 2.16 0 0 0-.545-1.435 2.164 2.164 0 0 0 .586-3.732" data-color="1"/>
        <path fill="#ffffff" d="M3.9 22.533a.868.868 0 1 0-.002-1.735.868.868 0 0 0 .002 1.735" data-color="1"/>
        <path fill="#ffffff" d="M9.1 12.567c1.287 0 2.916-1.437 3.773-2.294 1.86-1.86 1.86-4.172 1.86-7.673 0-.271.162-.433.433-.433 1.499 0 2.167.668 2.167 2.166v5.2a.433.433 0 1 0 .867 0v-5.2c0-1.984-1.05-3.033-3.033-3.033-.754 0-1.3.547-1.3 1.3 0 3.401 0 5.454-1.607 7.06-1.258 1.258-2.469 2.04-3.16 2.04a.433.433 0 1 0 0 .867" data-color="1"/>
        <path fill="#ffffff" d="M7.367 10.833H.433a.433.433 0 0 0-.433.434v13c0 .239.194.433.433.433h6.934c.24 0 .433-.194.433-.433v-13a.433.433 0 0 0-.433-.434m-.434 13H.867V11.7h6.066z" data-color="1"/>
    </g>
</svg>
